# xmcd CD database file
#
# Track frame offsets:
#	150
#	26485
#	55582
#	76545
#	102737
#	123887
#	151457
#	166177
#	192435
#	216875
#	237520
#	258047
#
# Disc length: 3698 seconds
#
# Revision: 0
# Processed by: cddbd v1.5.1PL0 Copyright (c) Steve Scherf et al.
# Submitted via: cdripper 1.0.7
#
DISCID=930e700c
DTITLE=Louis Myers - Tell My Story Movin'
DYEAR=1992
DGENRE=Blues
TTITLE0=Wiggle Tail
TTITLE1=Blue and Lonesome
TTITLE2=Bottom of the Harp
TTITLE3=Whoopin' Cough
TTITLE4=Sloppy Drunk
TTITLE5=One More Break
TTITLE6=Tribute to the Aces
TTITLE7=Rock Me
TTITLE8=In the Evening
TTITLE9=Heart Attack
TTITLE10=Worried Life Blues
TTITLE11=Tell My Story Movin'
EXTD=YEAR: 1992
EXTT0=
EXTT1=
EXTT2=
EXTT3=
EXTT4=
EXTT5=
EXTT6=
EXTT7=
EXTT8=
EXTT9=
EXTT10=
EXTT11=
PLAYORDER=
